<svg xmlns="http://www.w3.org/2000/svg" width="115" height="80" viewBox="0 0 120.019 84.929">
  <g id="whale" transform="translate(2.501 2.501)">
    <g id="Group_14" data-name="Group 14">
      <path id="Path_22" data-name="Path 22" d="M105.067,56.053c.085,1.7,1.553,12.049-6.389,16.812-5.139,3.081-22.985,1.025-25.752.578" transform="translate(-17.305 -33.987)" fill="none" stroke="#00a7ba" stroke-linecap="round" stroke-linejoin="bevel" stroke-miterlimit="10" stroke-width="5"/>
      <path id="Path_23" data-name="Path 23" d="M28.854,88.827c2.39.063,17.786.624,18.8.648" transform="translate(-15.746 -36.025)" fill="none" stroke="#00a7ba" stroke-linecap="round" stroke-linejoin="bevel" stroke-miterlimit="10" stroke-width="3"/>
      <path id="Path_24" data-name="Path 24" d="M21.007,82.192c2.173.058,16.172.587,17.1.608" transform="translate(-15.421 -35.576)" fill="none" stroke="#00a7ba" stroke-linecap="round" stroke-linejoin="bevel" stroke-miterlimit="10" stroke-width="3"/>
      <circle id="Ellipse_1" data-name="Ellipse 1" cx="1.618" cy="1.618" r="1.618" transform="translate(34.003 29.569)" fill="none" stroke="#00a7ba" stroke-linecap="round" stroke-linejoin="bevel" stroke-miterlimit="10" stroke-width="2"/>
      <path id="Path_25" data-name="Path 25" d="M18.035,72.91c1.259,0,41.433.967,42.888,1" transform="translate(-15.298 -34.955)" fill="none" stroke="#00a7ba" stroke-linecap="round" stroke-linejoin="bevel" stroke-miterlimit="10" stroke-width="5"/>
      <path id="Path_26" data-name="Path 26" d="M61.169,102.043c-23.836-.557-46.516-18.452-45.979-41.469.182-7.787,2.577-6.915,49.551-7.126,45.514-.2,48.926.812,44.92,14.966-2.347,8.29-11.584,25.1-31.281,31.233" transform="translate(-15.18 -34.427)" fill="none" stroke="#00a7ba" stroke-linecap="round" stroke-linejoin="bevel" stroke-miterlimit="10" stroke-width="5"/>
      <path id="Path_27" data-name="Path 27" d="M133.947,39.52c.105.23-.38,7.729-5.187,11.664-3.78,3.1-12.982,4.219-12.736,2.86.353-1.952,1.92-7.734,4.91-9.874C128.126,39.023,133.791,39.177,133.947,39.52Z" transform="translate(-18.959 -32.499)" fill="none" stroke="#00a7ba" stroke-miterlimit="10" stroke-width="5"/>
      <path id="Path_28" data-name="Path 28" d="M112.508,53.1c-.966,1.123-9.757.02-14.113-5.521C93.869,41.824,90.12,32.171,91.5,32.2c3.856.085,8.676,2.817,11.927,5.619C109.153,42.753,113.866,51.521,112.508,53.1Z" transform="translate(-18.018 -32.203)" fill="none" stroke="#00a7ba" stroke-miterlimit="10" stroke-width="5"/>
      <path id="Path_29" data-name="Path 29" d="M72.4,74.328c4.1,2.733,6.325,6.361,7.694,12.735.679,3.164.267,7.5-.2,12.726-.208,2.336-.427,4.849-.563,7.513-.153,3-1.227,7.524-2.236,8.458-1.881,1.744-6.027-2.488-8.5-5.106a32.139,32.139,0,0,1-5.1-7.649,34.632,34.632,0,0,1-2.552-6.68c-1.238-5.138-.633-16.78,1.466-21.692" transform="translate(-16.868 -36.169)" fill="none" stroke="#00a7ba" stroke-linecap="round" stroke-linejoin="bevel" stroke-miterlimit="10" stroke-width="5"/>
      <path id="Path_30" data-name="Path 30" d="M110.355,45.542c2.075,2.292,5.064,11.591,4.48,16.1" transform="translate(-18.792 -33.185)" fill="none" stroke="#00a7ba" stroke-linecap="round" stroke-linejoin="bevel" stroke-miterlimit="10" stroke-width="5"/>
    </g>
  </g>
</svg>
